# xmcd CD database file
#
# Track frame offsets:
#	187
#	22667
#	47912
#	70367
#
# Disc length: 1336 seconds
#
# Revision: 0
# Processed by: cddbd v1.5PL3 Copyright (c) Steve Scherf et al.
# Submitted via: CDex 1.50beta8
#
DISCID=2c053604
DTITLE=るるる - NIPPONの未来
DYEAR=1995
DGENRE=J-pop
TTITLE0=NIPPONの未来
TTITLE1=夢織人
TTITLE2=NIPPONの未来（オリジナル・カラオケ）
TTITLE3=夢織人（オリジナル・カラオケ）
EXTD=YEAR: 1995
EXTT0=
EXTT1=
EXTT2=
EXTT3=
PLAYORDER=
